<svg width="645" height="76" viewBox="0 0 645 76" fill="none" xmlns="http://www.w3.org/2000/svg">
<path d="M5.32 13.63L0 11.07C3.24 4.34 10.16 0 17.62 0C25.11 0 31.83 4.17 35.15 10.89L29.86 13.51C27.54 8.82 22.85 5.9 17.62 5.9C12.41 5.9 7.58 8.94 5.32 13.63Z" fill="black"/>
<path d="M92.9294 13.63L87.6094 11.07C90.8494 4.34 97.7694 0 105.229 0C112.719 0 119.439 4.17 122.759 10.89L117.469 13.51C115.149 8.82 110.459 5.9 105.229 5.9C100.019 5.9 95.1894 8.94 92.9294 13.63Z" fill="black"/>
<path d="M61.2398 75.5999C33.9498 75.5999 11.0598 62.3899 0.00976562 40.2599L5.28977 37.6199C15.3198 57.7099 36.2398 69.6999 61.2398 69.6999C86.4998 69.6999 107.52 57.4999 117.46 37.0699L122.77 39.6499C111.82 62.1599 88.8198 75.5999 61.2398 75.5999Z" fill="black"/>
<path d="M189.371 45.47L168.861 5.77002H160.891V62.72H167.721V18.06L186.761 54.59H191.891L210.931 17.97V62.72H217.761V5.77002H209.711L189.371 45.47Z" fill="black"/>
<path d="M258.4 24.04C255.55 22.28 252.18 21.4 248.27 21.4C244.31 21.4 240.83 22.28 237.81 24.04C234.8 25.8 232.45 28.27 230.77 31.44C229.09 34.61 228.25 38.31 228.25 42.54C228.25 46.83 229.11 50.54 230.81 53.69C232.52 56.84 234.86 59.29 237.85 61.05C240.84 62.81 244.25 63.69 248.1 63.69C252.87 63.69 256.79 62.46 259.86 59.99C262.92 57.52 265 54.42 266.08 50.67H259.33C258.46 52.89 257.08 54.66 255.18 55.96C253.28 57.26 250.92 57.91 248.1 57.91C245.93 57.91 243.88 57.4 241.96 56.36C240.03 55.33 238.43 53.8 237.16 51.76C235.89 49.73 235.17 47.16 235 44.07H267.14C267.14 43.31 267.15 42.63 267.18 42.04C267.21 41.44 267.22 40.85 267.22 40.25C267.22 36.94 266.46 33.85 264.94 30.97C263.43 28.12 261.25 25.8 258.4 24.04ZM235.09 38.8C235.47 35.01 236.92 32.12 239.44 30.14C241.96 28.16 244.85 27.17 248.1 27.17C251.52 27.17 254.39 28.2 256.72 30.26C259.05 32.32 260.3 35.17 260.46 38.8H235.09Z" fill="black"/>
<path d="M305.261 24.04C302.411 22.28 299.041 21.4 295.131 21.4C291.171 21.4 287.691 22.28 284.671 24.04C281.661 25.8 279.311 28.27 277.631 31.44C275.951 34.61 275.111 38.31 275.111 42.54C275.111 46.83 275.961 50.54 277.671 53.69C279.381 56.84 281.721 59.29 284.711 61.05C287.701 62.81 291.111 63.69 294.961 63.69C299.731 63.69 303.651 62.46 306.721 59.99C309.781 57.52 311.861 54.42 312.941 50.67H306.191C305.321 52.89 303.941 54.66 302.041 55.96C300.141 57.26 297.781 57.91 294.961 57.91C292.791 57.91 290.741 57.4 288.821 56.36C286.891 55.33 285.291 53.8 284.021 51.76C282.751 49.73 282.031 47.16 281.861 44.07H314.001C314.001 43.31 314.011 42.63 314.041 42.04C314.071 41.44 314.081 40.85 314.081 40.25C314.081 36.94 313.321 33.85 311.801 30.97C310.291 28.12 308.111 25.8 305.261 24.04ZM281.961 38.8C282.341 35.01 283.791 32.12 286.311 30.14C288.831 28.16 291.721 27.17 294.971 27.17C298.391 27.17 301.261 28.2 303.591 30.26C305.921 32.32 307.171 35.17 307.331 38.8H281.961Z" fill="black"/>
<path d="M333.211 12.6901H326.321L326.371 22.3701H320.371V28.1501H326.371V50.3601C326.371 55.0301 327.431 58.2501 329.541 60.0401C331.661 61.8301 334.561 62.7201 338.251 62.7201H343.431V56.8601H340.201C337.601 56.8601 335.781 56.4101 334.751 55.5201C333.721 54.6301 333.201 52.9001 333.201 50.3501V28.1401H344.081V22.3601H333.201V12.6901H333.211Z" fill="black"/>
<path d="M421.771 23.99C418.731 22.26 415.321 21.39 411.521 21.39C407.721 21.39 404.292 22.26 401.232 23.99C398.172 25.73 395.742 28.18 393.952 31.35C392.162 34.52 391.271 38.25 391.271 42.54C391.271 46.83 392.151 50.55 393.911 53.73C395.671 56.9 398.071 59.36 401.111 61.09C404.151 62.83 407.561 63.69 411.361 63.69C415.151 63.69 418.591 62.82 421.651 61.09C424.711 59.35 427.141 56.9 428.931 53.73C430.721 50.56 431.621 46.83 431.621 42.54C431.621 38.26 430.742 34.53 428.982 31.35C427.212 28.18 424.811 25.73 421.771 23.99ZM422.751 51.01C421.501 53.29 419.871 55 417.871 56.14C415.861 57.28 413.691 57.85 411.361 57.85C409.081 57.85 406.951 57.28 404.971 56.14C402.991 55 401.382 53.29 400.132 51.01C398.882 48.73 398.262 45.91 398.262 42.55C398.262 39.19 398.882 36.37 400.132 34.09C401.382 31.81 403.002 30.1 405.012 28.97C407.022 27.83 409.181 27.26 411.521 27.26C413.801 27.26 415.942 27.83 417.952 28.97C419.962 30.11 421.572 31.82 422.792 34.09C424.012 36.37 424.621 39.19 424.621 42.55C424.621 45.91 423.991 48.73 422.751 51.01Z" fill="black"/>
<path d="M470.181 43.28C470.181 47.95 469.031 51.54 466.721 54.06C464.411 56.58 461.501 57.84 457.971 57.84C451.081 57.84 447.641 53.64 447.641 45.23V22.37H440.811V45.97C440.811 51.99 442.221 56.45 445.041 59.35C447.861 62.25 451.661 63.7 456.431 63.7C459.521 63.7 462.301 62.97 464.771 61.5C467.241 60.04 469.101 58.03 470.341 55.48L470.301 62.72H477.011V22.37H470.181V43.28Z" fill="black"/>
<path d="M495.641 29.95V22.37H495.331H488.801V45.08V62.72H495.631V45.08V42.38C495.631 38.85 496.231 36.09 497.421 34.08C498.611 32.07 500.211 30.65 502.221 29.81C504.231 28.97 506.421 28.55 508.811 28.55H510.681V21.39C506.941 21.39 503.791 22.18 501.241 23.75C498.761 25.29 496.891 27.37 495.641 29.95Z" fill="black"/>
<path d="M542.14 40.96C539.89 40.17 537.52 39.51 535.02 38.97C532.09 38.32 529.77 37.53 528.06 36.61C526.35 35.69 525.5 34.41 525.5 32.79C525.5 31.11 526.16 29.75 527.49 28.72C528.82 27.69 530.7 27.17 533.14 27.17C535.63 27.17 537.63 27.75 539.12 28.92C540.61 30.09 541.49 31.7 541.76 33.76H548.51C548.07 29.8 546.49 26.75 543.75 24.61C541.01 22.47 537.5 21.4 533.21 21.4C528.71 21.4 525.14 22.53 522.51 24.78C519.88 27.03 518.56 29.92 518.56 33.45C518.56 35.89 519.29 37.86 520.76 39.35C522.22 40.84 524.04 41.99 526.21 42.81C528.38 43.62 530.55 44.25 532.72 44.68C535.92 45.33 538.4 46.06 540.16 46.88C541.92 47.69 542.8 49.32 542.8 51.76C542.8 53.44 542.12 54.89 540.77 56.11C539.41 57.33 537.3 57.94 534.42 57.94C531.33 57.94 528.87 57.17 527.06 55.62C525.24 54.07 524.12 52.24 523.68 50.13H516.68C517.22 54.31 519.09 57.61 522.3 60.06C525.5 62.5 529.51 63.72 534.34 63.72C539.11 63.72 542.9 62.54 545.69 60.18C548.48 57.82 549.85 54.82 549.8 51.19C549.8 48.26 549.08 46.02 547.64 44.48C546.24 42.91 544.39 41.75 542.14 40.96Z" fill="black"/>
<path d="M588.601 24.04C585.751 22.28 582.381 21.4 578.471 21.4C574.511 21.4 571.031 22.28 568.011 24.04C565.001 25.8 562.651 28.27 560.971 31.44C559.291 34.61 558.451 38.31 558.451 42.54C558.451 46.83 559.311 50.54 561.011 53.69C562.721 56.84 565.061 59.29 568.051 61.05C571.041 62.81 574.451 63.69 578.301 63.69C583.071 63.69 586.991 62.46 590.061 59.99C593.121 57.52 595.201 54.42 596.281 50.67H589.531C588.661 52.89 587.281 54.66 585.381 55.96C583.481 57.26 581.121 57.91 578.301 57.91C576.131 57.91 574.081 57.4 572.161 56.36C570.231 55.33 568.631 53.8 567.361 51.76C566.091 49.73 565.371 47.16 565.201 44.07H597.341C597.341 43.31 597.351 42.63 597.381 42.04C597.411 41.44 597.421 40.85 597.421 40.25C597.421 36.94 596.661 33.85 595.141 30.97C593.631 28.12 591.451 25.8 588.601 24.04ZM565.291 38.8C565.671 35.01 567.121 32.12 569.641 30.14C572.161 28.16 575.051 27.17 578.301 27.17C581.721 27.17 584.591 28.2 586.921 30.26C589.251 32.32 590.501 35.17 590.661 38.8H565.291Z" fill="black"/>
<path d="M613.861 4.14001H607.031V62.72H613.861V4.14001Z" fill="black"/>
<path d="M634.69 22.37V15.54C634.69 13.53 635.12 12.11 635.99 11.27C636.86 10.43 638.32 10.01 640.38 10.01H643.39V4.14001H639.32C635.58 4.14001 632.73 5.03001 630.78 6.83001C628.83 8.62001 627.85 11.47 627.85 15.37V22.37H622.75V28.15H627.85V62.73H634.68V28.14H644.6V22.36H634.69V22.37Z" fill="black"/>
<path d="M394.97 5.77002H387.07L371.24 36.69L355.27 5.77002H347.42L367.78 44.19V63.7H374.61V44.19L394.97 5.77002Z" fill="black"/>
</svg>
