<svg width="484" height="223" viewBox="0 0 484 223" fill="none" xmlns="http://www.w3.org/2000/svg">
<path d="M157.07 20.43L149.1 16.59C153.96 6.51 164.32 0 175.5 0C186.73 0 196.79 6.25 201.77 16.32L193.84 20.24C190.36 13.21 183.34 8.84 175.5 8.84C167.69 8.84 160.46 13.39 157.07 20.43Z" fill="black"/>
<path d="M288.339 20.43L280.369 16.59C285.229 6.51 295.589 0 306.769 0C317.999 0 328.059 6.25 333.039 16.32L325.109 20.24C321.629 13.21 314.599 8.84 306.769 8.84C298.969 8.84 291.729 13.39 288.339 20.43Z" fill="black"/>
<path d="M240.87 113.28C199.97 113.28 165.68 93.48 149.13 60.32L157.04 56.37C172.06 86.46 203.39 104.43 240.86 104.43C278.71 104.43 310.2 86.15 325.09 55.54L333.04 59.41C316.65 93.14 282.18 113.28 240.87 113.28Z" fill="black"/>
<path d="M28.48 204.03L7.97 164.32H0V221.28H6.83V176.61L25.87 213.14H31L50.04 176.53V221.28H56.87V164.32H48.82L28.48 204.03Z" fill="black"/>
<path d="M97.5104 182.59C94.6604 180.83 91.2903 179.95 87.3803 179.95C83.4203 179.95 79.9403 180.83 76.9203 182.59C73.9103 184.35 71.5603 186.82 69.8803 189.99C68.2003 193.16 67.3604 196.86 67.3604 201.09C67.3604 205.38 68.2203 209.09 69.9203 212.24C71.6303 215.39 73.9704 217.84 76.9604 219.6C79.9503 221.36 83.3603 222.24 87.2104 222.24C91.9804 222.24 95.9004 221.01 98.9704 218.54C102.03 216.07 104.11 212.97 105.19 209.22H98.4404C97.5704 211.44 96.1904 213.21 94.2904 214.51C92.3904 215.81 90.0303 216.46 87.2104 216.46C85.0403 216.46 82.9904 215.95 81.0704 214.91C79.1404 213.88 77.5403 212.35 76.2703 210.31C75.0003 208.28 74.2804 205.71 74.1104 202.62H106.25C106.25 201.86 106.26 201.18 106.29 200.59C106.32 199.99 106.33 199.4 106.33 198.8C106.33 195.49 105.57 192.4 104.05 189.52C102.54 186.67 100.36 184.35 97.5104 182.59ZM74.2003 197.36C74.5803 193.57 76.0304 190.68 78.5504 188.7C81.0704 186.72 83.9604 185.73 87.2104 185.73C90.6304 185.73 93.5004 186.76 95.8304 188.82C98.1604 190.88 99.4104 193.73 99.5704 197.36H74.2003Z" fill="black"/>
<path d="M144.37 182.59C141.52 180.83 138.15 179.95 134.24 179.95C130.28 179.95 126.8 180.83 123.78 182.59C120.77 184.35 118.42 186.82 116.74 189.99C115.06 193.16 114.22 196.86 114.22 201.09C114.22 205.38 115.07 209.09 116.78 212.24C118.49 215.39 120.83 217.84 123.82 219.6C126.81 221.36 130.22 222.24 134.07 222.24C138.84 222.24 142.76 221.01 145.83 218.54C148.89 216.07 150.97 212.97 152.05 209.22H145.3C144.43 211.44 143.05 213.21 141.15 214.51C139.25 215.81 136.89 216.46 134.07 216.46C131.9 216.46 129.85 215.95 127.93 214.91C126 213.88 124.4 212.35 123.13 210.31C121.86 208.28 121.14 205.71 120.97 202.62H153.11C153.11 201.86 153.12 201.18 153.15 200.59C153.18 199.99 153.19 199.4 153.19 198.8C153.19 195.49 152.43 192.4 150.91 189.52C149.4 186.67 147.22 184.35 144.37 182.59ZM121.06 197.36C121.44 193.57 122.89 190.68 125.41 188.7C127.93 186.72 130.82 185.73 134.07 185.73C137.49 185.73 140.36 186.76 142.69 188.82C145.02 190.88 146.27 193.73 146.43 197.36H121.06Z" fill="black"/>
<path d="M172.32 171.24H165.43L165.48 180.92H159.48V186.7H165.48V208.91C165.48 213.58 166.54 216.8 168.65 218.59C170.77 220.38 173.67 221.27 177.36 221.27H182.54V215.41H179.31C176.71 215.41 174.89 214.96 173.86 214.07C172.83 213.18 172.31 211.45 172.31 208.9V186.7H183.19V180.92H172.31V171.24H172.32Z" fill="black"/>
<path d="M260.88 182.55C257.84 180.82 254.43 179.95 250.63 179.95C246.83 179.95 243.4 180.82 240.34 182.55C237.28 184.29 234.85 186.74 233.06 189.91C231.27 193.08 230.38 196.81 230.38 201.1C230.38 205.39 231.26 209.11 233.02 212.29C234.78 215.46 237.18 217.92 240.22 219.65C243.26 221.39 246.67 222.25 250.47 222.25C254.26 222.25 257.7 221.38 260.76 219.65C263.82 217.91 266.25 215.46 268.04 212.29C269.83 209.12 270.73 205.39 270.73 201.1C270.73 196.82 269.85 193.09 268.09 189.91C266.32 186.74 263.91 184.29 260.88 182.55ZM261.85 209.56C260.6 211.84 258.97 213.55 256.97 214.69C254.96 215.83 252.79 216.4 250.46 216.4C248.18 216.4 246.05 215.83 244.07 214.69C242.09 213.55 240.48 211.84 239.23 209.56C237.98 207.28 237.36 204.46 237.36 201.1C237.36 197.74 237.98 194.92 239.23 192.64C240.48 190.36 242.1 188.65 244.11 187.52C246.12 186.38 248.28 185.81 250.62 185.81C252.9 185.81 255.04 186.38 257.05 187.52C259.06 188.66 260.67 190.37 261.89 192.64C263.11 194.92 263.72 197.74 263.72 201.1C263.73 204.46 263.1 207.28 261.85 209.56Z" fill="black"/>
<path d="M309.29 201.83C309.29 206.5 308.14 210.09 305.83 212.61C303.52 215.13 300.61 216.39 297.08 216.39C290.19 216.39 286.75 212.19 286.75 203.78V180.92H279.92V204.52C279.92 210.54 281.33 215 284.15 217.9C286.97 220.8 290.77 222.25 295.54 222.25C298.63 222.25 301.41 221.52 303.88 220.05C306.35 218.59 308.21 216.58 309.45 214.03L309.41 221.27H316.12V180.91H309.29V201.83Z" fill="black"/>
<path d="M334.75 188.51V180.93H334.44H327.91V203.64V221.28H334.74V203.64V200.94C334.74 197.41 335.34 194.65 336.53 192.64C337.72 190.63 339.32 189.21 341.33 188.37C343.34 187.53 345.53 187.11 347.92 187.11H349.79V179.95C346.05 179.95 342.9 180.74 340.35 182.31C337.87 183.85 336 185.92 334.75 188.51Z" fill="black"/>
<path d="M381.25 199.51C379 198.72 376.63 198.06 374.13 197.52C371.2 196.87 368.88 196.08 367.17 195.16C365.46 194.24 364.61 192.96 364.61 191.34C364.61 189.66 365.27 188.3 366.6 187.27C367.93 186.24 369.81 185.72 372.25 185.72C374.74 185.72 376.74 186.3 378.23 187.47C379.72 188.64 380.6 190.25 380.87 192.31H387.62C387.18 188.35 385.6 185.3 382.86 183.16C380.12 181.02 376.61 179.95 372.32 179.95C367.82 179.95 364.25 181.08 361.62 183.33C358.99 185.58 357.67 188.47 357.67 192C357.67 194.44 358.4 196.41 359.87 197.9C361.33 199.39 363.15 200.54 365.32 201.36C367.49 202.17 369.66 202.8 371.83 203.23C375.03 203.88 377.51 204.61 379.27 205.43C381.03 206.24 381.91 207.87 381.91 210.31C381.91 211.99 381.23 213.44 379.88 214.66C378.52 215.88 376.41 216.49 373.53 216.49C370.44 216.49 367.98 215.72 366.17 214.17C364.35 212.62 363.23 210.79 362.79 208.68H355.79C356.33 212.86 358.2 216.16 361.41 218.61C364.61 221.05 368.62 222.27 373.45 222.27C378.22 222.27 382.01 221.09 384.8 218.73C387.59 216.37 388.96 213.37 388.91 209.74C388.91 206.81 388.19 204.57 386.75 203.03C385.35 201.47 383.5 200.3 381.25 199.51Z" fill="black"/>
<path d="M427.71 182.59C424.86 180.83 421.49 179.95 417.58 179.95C413.62 179.95 410.14 180.83 407.12 182.59C404.11 184.35 401.76 186.82 400.08 189.99C398.4 193.16 397.56 196.86 397.56 201.09C397.56 205.38 398.42 209.09 400.12 212.24C401.83 215.39 404.17 217.84 407.16 219.6C410.15 221.36 413.56 222.24 417.41 222.24C422.18 222.24 426.1 221.01 429.17 218.54C432.23 216.07 434.31 212.97 435.39 209.22H428.64C427.77 211.44 426.39 213.21 424.49 214.51C422.59 215.81 420.23 216.46 417.41 216.46C415.24 216.46 413.19 215.95 411.27 214.91C409.34 213.88 407.74 212.35 406.47 210.31C405.2 208.28 404.48 205.71 404.31 202.62H436.45C436.45 201.86 436.46 201.18 436.49 200.59C436.52 199.99 436.53 199.4 436.53 198.8C436.53 195.49 435.77 192.4 434.25 189.52C432.74 186.67 430.56 184.35 427.71 182.59ZM404.4 197.36C404.78 193.57 406.23 190.68 408.75 188.7C411.27 186.72 414.16 185.73 417.41 185.73C420.83 185.73 423.7 186.76 426.03 188.82C428.36 190.88 429.61 193.73 429.77 197.36H404.4Z" fill="black"/>
<path d="M452.97 162.7H446.14V221.28H452.97V162.7Z" fill="black"/>
<path d="M473.8 180.92V174.09C473.8 172.08 474.23 170.66 475.1 169.82C475.97 168.98 477.43 168.56 479.49 168.56H482.5V162.7H478.43C474.69 162.7 471.84 163.59 469.89 165.39C467.94 167.18 466.96 170.03 466.96 173.93V180.93H461.86V186.71H466.96V221.29H473.79V186.7H483.71V180.92H473.8Z" fill="black"/>
<path d="M234.08 164.32H226.18L210.34 195.24L194.38 164.32H186.53L206.89 202.74V222.25H213.72V202.74L234.08 164.32Z" fill="black"/>
</svg>
